<svg width="223" height="29" viewBox="0 0 223 29" fill="none" xmlns="http://www.w3.org/2000/svg">
<path d="M24.004 20.818C23.5227 22.566 22.75 24.01 21.686 25.15C20.622 26.2647 19.3553 27.088 17.886 27.62C16.4167 28.1267 14.7953 28.38 13.022 28.38C10.4887 28.38 8.29733 27.8733 6.448 26.86C4.59867 25.8213 3.18 24.3393 2.192 22.414C1.204 20.4887 0.71 18.1707 0.71 15.46C0.71 12.7493 1.204 10.4313 2.192 8.506C3.18 6.58067 4.59867 5.11133 6.448 4.098C8.29733 3.05933 10.476 2.54 12.984 2.54C14.732 2.54 16.3407 2.79333 17.81 3.3C19.2793 3.78133 20.5207 4.52867 21.534 5.542C22.5473 6.55533 23.2693 7.86 23.7 9.456L17.962 11.774C17.6073 10.2033 17.0247 9.12667 16.214 8.544C15.4287 7.96133 14.428 7.67 13.212 7.67C12.0213 7.67 10.9827 7.96133 10.096 8.544C9.23467 9.12667 8.56333 10.0007 8.082 11.166C7.626 12.306 7.398 13.7373 7.398 15.46C7.398 17.1573 7.61333 18.5887 8.044 19.754C8.47467 20.9193 9.12067 21.7933 9.982 22.376C10.8687 22.9587 11.958 23.25 13.25 23.25C14.466 23.25 15.492 22.9207 16.328 22.262C17.1893 21.578 17.772 20.5393 18.076 19.146L24.004 20.818ZM35.4672 8.62C37.4686 8.62 39.2166 9.01266 40.7112 9.798C42.2312 10.558 43.4092 11.6853 44.2452 13.18C45.1066 14.6493 45.5372 16.4227 45.5372 18.5C45.5372 20.5773 45.1066 22.3633 44.2452 23.858C43.4092 25.3273 42.2312 26.4547 40.7112 27.24C39.2166 28 37.4686 28.38 35.4672 28.38C33.5166 28.38 31.7812 28 30.2612 27.24C28.7412 26.4547 27.5506 25.3273 26.6892 23.858C25.8532 22.3633 25.4352 20.5773 25.4352 18.5C25.4352 16.4227 25.8532 14.6493 26.6892 13.18C27.5506 11.6853 28.7412 10.558 30.2612 9.798C31.7812 9.01266 33.5166 8.62 35.4672 8.62ZM35.4672 13.218C34.7326 13.218 34.0992 13.3953 33.5672 13.75C33.0352 14.1047 32.6299 14.6747 32.3512 15.46C32.0726 16.2453 31.9332 17.2587 31.9332 18.5C31.9332 19.7413 32.0726 20.7547 32.3512 21.54C32.6299 22.3 33.0352 22.87 33.5672 23.25C34.0992 23.6047 34.7326 23.782 35.4672 23.782C36.2272 23.782 36.8732 23.6047 37.4052 23.25C37.9372 22.87 38.3426 22.3 38.6212 21.54C38.8999 20.7547 39.0392 19.7413 39.0392 18.5C39.0392 17.2587 38.8999 16.2453 38.6212 15.46C38.3426 14.6747 37.9372 14.1047 37.4052 13.75C36.8732 13.3953 36.2272 13.218 35.4672 13.218ZM48.4113 28V9H54.1873L54.5293 15.536L53.8073 14.814C54.0606 13.446 54.5039 12.306 55.1373 11.394C55.7959 10.482 56.6066 9.798 57.5693 9.342C58.5573 8.86067 59.6593 8.62 60.8753 8.62C62.1926 8.62 63.3326 8.87333 64.2953 9.38C65.2833 9.88667 66.0559 10.634 66.6133 11.622C67.1706 12.61 67.4493 13.8513 67.4493 15.346V28H60.9893V17.056C60.9893 15.7387 60.7359 14.8267 60.2293 14.32C59.7226 13.8133 59.0766 13.56 58.2913 13.56C57.6833 13.56 57.1133 13.712 56.5813 14.016C56.0493 14.2947 55.6313 14.7507 55.3273 15.384C55.0233 16.0173 54.8713 16.866 54.8713 17.93V28H48.4113ZM71.2157 28V9H76.9917L77.3337 15.536L76.6117 14.814C76.8651 13.446 77.3084 12.306 77.9417 11.394C78.6004 10.482 79.4111 9.798 80.3737 9.342C81.3617 8.86067 82.4637 8.62 83.6797 8.62C84.9971 8.62 86.1371 8.87333 87.0997 9.38C88.0877 9.88667 88.8604 10.634 89.4177 11.622C89.9751 12.61 90.2537 13.8513 90.2537 15.346V28H83.7937V17.056C83.7937 15.7387 83.5404 14.8267 83.0337 14.32C82.5271 13.8133 81.8811 13.56 81.0957 13.56C80.4877 13.56 79.9177 13.712 79.3857 14.016C78.8537 14.2947 78.4357 14.7507 78.1317 15.384C77.8277 16.0173 77.6757 16.866 77.6757 17.93V28H71.2157ZM103.292 28.38C101.19 28.38 99.3655 27.9873 97.8202 27.202C96.3002 26.4167 95.1222 25.2893 94.2862 23.82C93.4502 22.3507 93.0322 20.5773 93.0322 18.5C93.0322 16.4227 93.4502 14.6493 94.2862 13.18C95.1222 11.7107 96.2875 10.5833 97.7822 9.798C99.3022 9.01266 101.038 8.62 102.988 8.62C104.99 8.62 106.687 9.01266 108.08 9.798C109.499 10.558 110.576 11.622 111.31 12.99C112.045 14.3327 112.412 15.878 112.412 17.626C112.412 18.082 112.4 18.538 112.374 18.994C112.349 19.45 112.311 19.83 112.26 20.134H97.2122V16.676H109.41L106.332 17.854C106.332 16.334 106.054 15.1687 105.496 14.358C104.964 13.5473 104.128 13.142 102.988 13.142C102.178 13.142 101.481 13.332 100.898 13.712C100.341 14.092 99.9102 14.6873 99.6062 15.498C99.3275 16.3087 99.1882 17.3473 99.1882 18.614C99.1882 19.8553 99.3529 20.8687 99.6822 21.654C100.012 22.414 100.48 22.9713 101.088 23.326C101.696 23.6553 102.431 23.82 103.292 23.82C104.255 23.82 105.015 23.63 105.572 23.25C106.155 22.87 106.586 22.338 106.864 21.654L112.032 23.364C111.678 24.4533 111.057 25.378 110.17 26.138C109.309 26.8727 108.27 27.43 107.054 27.81C105.864 28.19 104.61 28.38 103.292 28.38ZM124.272 8.62C126.197 8.62 127.793 8.89866 129.06 9.456C130.352 9.988 131.353 10.71 132.062 11.622C132.797 12.5087 133.253 13.4713 133.43 14.51L127.464 16.486C127.287 15.3967 126.957 14.586 126.476 14.054C126.02 13.4967 125.349 13.218 124.462 13.218C123.651 13.218 122.967 13.408 122.41 13.788C121.878 14.1427 121.473 14.7253 121.194 15.536C120.915 16.3213 120.776 17.3347 120.776 18.576C120.776 19.8173 120.928 20.8307 121.232 21.616C121.536 22.376 121.967 22.9333 122.524 23.288C123.081 23.6173 123.74 23.782 124.5 23.782C125.133 23.782 125.653 23.668 126.058 23.44C126.489 23.1867 126.843 22.832 127.122 22.376C127.401 21.92 127.578 21.3627 127.654 20.704L133.468 22.566C133.291 23.6807 132.809 24.6813 132.024 25.568C131.264 26.4293 130.251 27.1133 128.984 27.62C127.717 28.1267 126.235 28.38 124.538 28.38C122.461 28.38 120.649 28 119.104 27.24C117.559 26.4547 116.368 25.3273 115.532 23.858C114.696 22.3633 114.278 20.5773 114.278 18.5C114.278 16.4227 114.696 14.6493 115.532 13.18C116.368 11.6853 117.533 10.558 119.028 9.798C120.548 9.01266 122.296 8.62 124.272 8.62ZM144.009 2.958V21.236C144.009 22.148 144.224 22.8067 144.655 23.212C145.111 23.592 145.731 23.782 146.517 23.782C147.125 23.782 147.644 23.7187 148.075 23.592C148.531 23.44 148.936 23.2247 149.291 22.946L149.975 26.936C149.341 27.392 148.543 27.7467 147.581 28C146.618 28.2533 145.63 28.38 144.617 28.38C143.173 28.38 141.919 28.1773 140.855 27.772C139.816 27.3667 139.005 26.7207 138.423 25.834C137.865 24.9473 137.574 23.7693 137.549 22.3V4.744L144.009 2.958ZM149.671 9V13.598H134.281V9H149.671Z" fill="black"/>
<path d="M174.998 2.92V28H168.462V2.92H174.998ZM158.886 2.92V28H152.35V2.92H158.886ZM171.958 12.838V17.892H155.542V12.838H171.958ZM185.648 28.38C184.356 28.38 183.216 28.1647 182.228 27.734C181.266 27.278 180.506 26.556 179.948 25.568C179.391 24.58 179.112 23.288 179.112 21.692V9H185.572V20.172C185.572 21.388 185.813 22.2367 186.294 22.718C186.776 23.1993 187.46 23.44 188.346 23.44C188.802 23.44 189.233 23.364 189.638 23.212C190.044 23.0347 190.398 22.7813 190.702 22.452C191.006 22.0973 191.234 21.654 191.386 21.122C191.564 20.5647 191.652 19.9187 191.652 19.184V9H198.112V28H192.336L192.146 24.428C191.538 25.7707 190.69 26.7713 189.6 27.43C188.511 28.0633 187.194 28.38 185.648 28.38ZM214.192 28.38C212.95 28.38 211.848 28.1013 210.886 27.544C209.948 26.9867 209.176 26.2267 208.568 25.264C207.96 24.276 207.567 23.1613 207.39 21.92L207.998 21.122L207.656 28H201.994V0.944H208.454V14.966L207.846 14.054C208.2 12.4833 208.922 11.1913 210.012 10.178C211.101 9.13933 212.57 8.62 214.42 8.62C215.889 8.62 217.194 9.01266 218.334 9.798C219.499 10.5833 220.398 11.7233 221.032 13.218C221.69 14.6873 222.02 16.4733 222.02 18.576C222.02 20.628 221.69 22.3887 221.032 23.858C220.373 25.3273 219.461 26.4547 218.296 27.24C217.13 28 215.762 28.38 214.192 28.38ZM211.95 23.63C213.064 23.63 213.938 23.2247 214.572 22.414C215.205 21.578 215.522 20.2733 215.522 18.5C215.522 16.7267 215.205 15.4347 214.572 14.624C213.938 13.788 213.064 13.37 211.95 13.37C211.215 13.37 210.582 13.5853 210.05 14.016C209.543 14.4213 209.15 15.004 208.872 15.764C208.593 16.524 208.454 17.4487 208.454 18.538C208.454 19.6273 208.593 20.552 208.872 21.312C209.15 22.072 209.556 22.6547 210.088 23.06C210.62 23.44 211.24 23.63 211.95 23.63Z" fill="#51CA73"/>
</svg>
